<?xml version="1.0" encoding="iso-8859-1"?>
<!-- Generator: Adobe Illustrator 18.0.0, SVG Export Plug-In . SVG Version: 6.00 Build 0)  -->
<!DOCTYPE svg PUBLIC "-//W3C//DTD SVG 1.1//EN" "http://www.w3.org/Graphics/SVG/1.1/DTD/svg11.dtd">
<svg version="1.1" id="Capa_1" xmlns="http://www.w3.org/2000/svg" xmlns:xlink="http://www.w3.org/1999/xlink" x="0px" y="0px"
	 viewBox="0 0 450.066 450.066" style="enable-background:new 0 0 450.066 450.066;" xml:space="preserve">
<g>
	<path d="M337.611,0H112.455C96.201,0,82.977,13.224,82.977,29.479v391.109c0,16.255,13.224,29.479,29.479,29.479h225.156
		c16.255,0,29.479-13.224,29.479-29.479V29.479C367.09,13.224,353.866,0,337.611,0z M352.09,420.588
		c0,7.983-6.495,14.479-14.479,14.479H112.455c-7.983,0-14.479-6.495-14.479-14.479V29.479c0-7.983,6.495-14.479,14.479-14.479
		h225.156c7.983,0,14.479,6.495,14.479,14.479V420.588z"/>
	<path d="M333.194,68.356H116.872c-4.142,0-7.5,3.358-7.5,7.5v298.355c0,4.142,3.358,7.5,7.5,7.5h216.323c4.143,0,7.5-3.358,7.5-7.5
		V75.856C340.694,71.714,337.337,68.356,333.194,68.356z M124.372,209.018l72.603-125.662h20.38l-92.983,160.938V209.018z
		 M179.651,83.356l-55.279,95.678V83.356H179.651z M124.372,274.278L234.678,83.356h91.016v158.548l-72.108,124.807H124.372V274.278
		z M270.91,366.711l54.784-94.822v94.822H270.91z"/>
	<path d="M198.11,49.842h53.846c4.143,0,7.5-3.358,7.5-7.5s-3.357-7.5-7.5-7.5H198.11c-4.142,0-7.5,3.358-7.5,7.5
		S193.968,49.842,198.11,49.842z"/>
	<path d="M225.033,387.485c-10.54,0-19.114,8.574-19.114,19.114s8.575,19.114,19.114,19.114c10.54,0,19.114-8.574,19.114-19.114
		S235.573,387.485,225.033,387.485z M225.033,410.713c-2.269,0-4.114-1.845-4.114-4.114s1.846-4.114,4.114-4.114
		s4.114,1.845,4.114,4.114S227.302,410.713,225.033,410.713z"/>
</g>
<g>
</g>
<g>
</g>
<g>
</g>
<g>
</g>
<g>
</g>
<g>
</g>
<g>
</g>
<g>
</g>
<g>
</g>
<g>
</g>
<g>
</g>
<g>
</g>
<g>
</g>
<g>
</g>
<g>
</g>
</svg>
